<svg xmlns="http://www.w3.org/2000/svg" version="1.1" xmlns:xlink="http://www.w3.org/1999/xlink" xmlns:svgjs="http://svgjs.com/svgjs" width="1440" height="560" preserveAspectRatio="none" viewBox="0 0 1440 560"><g mask="url(&quot;#SvgjsMask1012&quot;)" fill="none"><rect width="1440" height="560" x="0" y="0" fill="url(#SvgjsLinearGradient1013)"></rect><path d="M1440 0L1273.95 0L1440 33.61z" fill="rgba(255, 255, 255, .1)"></path><path d="M1273.95 0L1440 33.61L1440 69.64L793.45 0z" fill="rgba(255, 255, 255, .075)"></path><path d="M793.45 0L1440 69.64L1440 284.97L624.85 0z" fill="rgba(255, 255, 255, .05)"></path><path d="M624.85 0L1440 284.97L1440 381.24L532.1 0z" fill="rgba(255, 255, 255, .025)"></path><path d="M0 560L710.83 560L0 345.81z" fill="rgba(0, 0, 0, .1)"></path><path d="M0 345.81L710.83 560L929.86 560L0 310.46z" fill="rgba(0, 0, 0, .075)"></path><path d="M0 310.46000000000004L929.86 560L994.1700000000001 560L0 185.77000000000004z" fill="rgba(0, 0, 0, .05)"></path><path d="M0 185.76999999999998L994.1700000000001 560L1051.74 560L0 114.26999999999998z" fill="rgba(0, 0, 0, .025)"></path></g><defs><mask id="SvgjsMask1012"><rect width="1440" height="560" fill="#ffffff"></rect></mask><linearGradient x1="15.28%" y1="-39.29%" x2="84.72%" y2="139.29%" gradientUnits="userSpaceOnUse" id="SvgjsLinearGradient1013"><stop stop-color="rgba(54, 5, 104, 1)" offset="0"></stop><stop stop-color="rgba(119, 133, 172, 1)" offset="1"></stop></linearGradient></defs></svg>