<svg xmlns="http://www.w3.org/2000/svg" version="1.1" xmlns:xlink="http://www.w3.org/1999/xlink" xmlns:svgjs="http://svgjs.com/svgjs" width="1629" height="267" preserveAspectRatio="none" viewBox="0 0 1629 267"><g mask="url(&quot;#SvgjsMask1011&quot;)" fill="none"><path d="M 0,51 C 46.6,65.8 139.8,131 233,125 C 326.2,119 372.8,27 466,21 C 559.2,15 605.8,92.6 699,95 C 792.2,97.4 838.8,29.6 932,33 C 1025.2,36.4 1071.8,115 1165,112 C 1258.2,109 1305.2,17.6 1398,18 C 1490.8,18.4 1582.8,94.8 1629,114L1629 267L0 267z" fill="rgba(54, 5, 104, 1)"></path><path d="M 0,134 C 40.8,152.2 122.4,220.8 204,225 C 285.6,229.2 326.4,152 408,155 C 489.6,158 530.4,236 612,240 C 693.6,244 734.4,176.6 816,175 C 897.6,173.4 938.4,238.6 1020,232 C 1101.6,225.4 1142.4,139.6 1224,142 C 1305.6,144.4 1347,238.2 1428,244 C 1509,249.8 1588.8,185.6 1629,171L1629 267L0 267z" fill="rgba(119, 133, 172, 0)"></path></g><defs><mask id="SvgjsMask1011"><rect width="1629" height="267" fill="#ffffff"></rect></mask></defs></svg>